# xmcd
#
# Track frame offsets:
#	150
#	13505
#	47888
#	99920
#	145588
#	205490
#	235457
#	277256
#
# Disc length: 4176 seconds
#
# Revision: 0
# Processed by: cddbd v1.5.2PL0 Copyright (c) Steve Scherf et al.
# Submitted via: EZCDAudioConverter 2.1.7.1
#
DISCID=71104e08
DTITLE=V/A - I Am The Center 2/2
DYEAR=1900
DGENRE=
TTITLE0=Joanna Brouk - Lifting Off
TTITLE1=Michael Stearns - As The Earth Kissed The Moon [Excerpt]
TTITLE2=Aeoliah - Tien Fu: Heaven's Gate [Excerpt]
TTITLE3=Daniel Kobialka - Blue Spirals
TTITLE4=Larkin - Two Souls Dance
TTITLE5=Judith Tripp - Li Sun
TTITLE6=Mark Banning - Lunar Eclipse [Excerpt]
TTITLE7=Alice Damon - Waterfall Winds
EXTD=
EXTT0=
EXTT1=
EXTT2=
EXTT3=
EXTT4=
EXTT5=
EXTT6=
EXTT7=
PLAYORDER=
